<svg width="24" height="24" viewBox="0 0 24 24" fill="none" xmlns="http://www.w3.org/2000/svg">
<path d="M19.4629 5.57598C18.7749 4.82598 17.5339 4.77998 16.7069 5.60698L8.60694 13.707C8.39694 13.917 8.39694 14.183 8.60694 14.393C8.81694 14.603 9.08294 14.603 9.29294 14.393L15.9929 7.69298C16.1815 7.51082 16.4341 7.41003 16.6963 7.41231C16.9585 7.41459 17.2094 7.51976 17.3948 7.70516C17.5802 7.89057 17.6853 8.14139 17.6876 8.40358C17.6899 8.66578 17.5891 8.91838 17.4069 9.10698L10.7069 15.807C10.4786 16.0419 10.2055 16.2287 9.90367 16.3563C9.60188 16.4838 9.27757 16.5495 8.94994 16.5495C8.62231 16.5495 8.298 16.4838 7.99621 16.3563C7.69442 16.2287 7.42128 16.0419 7.19294 15.807C6.95798 15.5786 6.7712 15.3055 6.64366 15.0037C6.51612 14.7019 6.45041 14.3776 6.45041 14.05C6.45041 13.7223 6.51612 13.398 6.64366 13.0963C6.7712 12.7945 6.95798 12.5213 7.19294 12.293L15.2929 4.19298C16.8599 2.62498 19.4079 2.57398 20.9229 4.20798C22.4749 5.77698 22.5199 8.31198 20.8929 9.82098L11.4069 19.307C9.21694 21.497 5.78294 21.497 3.59294 19.307C1.40294 17.117 1.40294 13.683 3.59294 11.493L11.6929 3.39298C11.8815 3.21082 12.1341 3.11003 12.3963 3.11231C12.6585 3.11459 12.9093 3.21976 13.0948 3.40516C13.2802 3.59057 13.3853 3.84138 13.3876 4.10358C13.3899 4.36578 13.2891 4.61838 13.1069 4.80698L5.00694 12.907C3.59694 14.317 3.59694 16.483 5.00694 17.893C6.41694 19.303 8.58294 19.303 9.99294 17.893L19.4929 8.39298L19.5239 8.36298C20.2739 7.67598 20.3199 6.43398 19.4929 5.60698C19.4827 5.59685 19.4727 5.58652 19.4629 5.57598Z" fill="#6B7C85"/>
</svg>
