<svg width="345" height="347" viewBox="0 0 345 347" fill="none" xmlns="http://www.w3.org/2000/svg">
<g filter="url(#filter0_d_107_460)">
<path d="M95.5528 231.56L99.1814 233.386C114.303 242.516 131.237 246.777 148.172 246.777C201.396 246.777 244.943 202.952 244.943 149.389C244.943 123.824 234.66 98.8684 216.516 80.6078C198.372 62.3471 174.178 52 148.172 52C94.9485 52 51.401 95.8248 52.0062 149.998C52.0062 168.257 57.4496 185.91 66.5215 201.126L68.9405 204.779L59.2643 240.691L95.5528 231.56Z" fill="#00E676"/>
</g>
<path d="M226.912 68.8686C206.348 47.5653 177.922 36 148.891 36C87.2003 36 37.6052 86.5202 38.2095 147.997C38.2095 167.474 43.6529 186.344 52.7256 203.387L37 261.211L95.6671 245.994C111.997 255.125 130.141 259.386 148.286 259.386C209.373 259.386 258.968 208.865 258.968 147.389C258.968 117.563 247.475 89.5638 226.912 68.8686ZM148.891 240.517C132.561 240.517 116.231 236.257 102.32 227.735L98.6913 225.909L63.6123 235.039L72.6842 200.345L70.2652 196.692C43.6529 153.476 56.3542 96.2591 99.9009 69.4768C143.447 42.6954 199.695 55.4779 226.308 99.3027C252.919 143.128 240.218 199.735 196.672 226.517C182.76 235.647 165.826 240.517 148.891 240.517ZM202.115 172.954L195.462 169.911C195.462 169.911 185.785 165.65 179.737 162.606C179.132 162.606 178.527 161.997 177.922 161.997C176.107 161.997 174.898 162.606 173.688 163.215C173.688 163.215 173.084 163.824 164.616 173.562C164.011 174.78 162.802 175.389 161.592 175.389H160.987C160.383 175.389 159.173 174.78 158.568 174.172L155.544 172.954C148.891 169.911 142.843 166.258 138.004 161.389C136.795 160.172 134.98 158.954 133.77 157.737C129.537 153.476 125.303 148.606 122.279 143.128L121.674 141.911C121.07 141.302 121.07 140.694 120.465 139.477C120.465 138.259 120.465 137.042 121.07 136.433C121.07 136.433 123.489 133.389 125.303 131.564C126.513 130.346 127.118 128.52 128.327 127.303C129.537 125.477 130.142 123.042 129.537 121.216C128.932 118.172 121.674 101.738 119.86 98.0863C118.65 96.26 117.441 95.6518 115.627 95.0427H108.974C107.763 95.0427 106.555 95.6518 105.344 95.6518L104.739 96.26C103.529 96.8691 102.32 98.0863 101.11 98.6945C99.9009 99.9126 99.2957 101.129 98.0861 102.347C93.8523 107.825 91.4333 114.521 91.4333 121.216C91.4333 126.085 92.6428 130.955 94.4575 135.216L95.0627 137.042C100.506 148.606 107.763 158.954 117.441 168.084L119.86 170.519C121.674 172.345 123.489 173.562 124.698 175.388C137.4 186.345 151.915 194.258 168.245 198.518C170.06 199.127 172.479 199.127 174.294 199.736H180.341C183.366 199.736 186.994 198.518 189.414 197.301C191.228 196.084 192.437 196.084 193.647 194.867L194.857 193.649C196.067 192.431 197.276 191.823 198.486 190.606C199.695 189.389 200.905 188.171 201.51 186.953C202.72 184.519 203.324 181.475 203.929 178.432V174.172C203.929 174.172 203.324 173.562 202.115 172.954Z" fill="white"/>
<defs>
<filter id="filter0_d_107_460" x="0" y="0" width="344.943" height="346.777" filterUnits="userSpaceOnUse" color-interpolation-filters="sRGB">
<feFlood flood-opacity="0" result="BackgroundImageFix"/>
<feColorMatrix in="SourceAlpha" type="matrix" values="0 0 0 0 0 0 0 0 0 0 0 0 0 0 0 0 0 0 127 0" result="hardAlpha"/>
<feOffset dx="24" dy="24"/>
<feGaussianBlur stdDeviation="38"/>
<feComposite in2="hardAlpha" operator="out"/>
<feColorMatrix type="matrix" values="0 0 0 0 0 0 0 0 0 0 0 0 0 0 0 0 0 0 0.43 0"/>
<feBlend mode="normal" in2="BackgroundImageFix" result="effect1_dropShadow_107_460"/>
<feBlend mode="normal" in="SourceGraphic" in2="effect1_dropShadow_107_460" result="shape"/>
</filter>
</defs>
</svg>
